<svg xmlns="http://www.w3.org/2000/svg" style="display: none;"><symbol id="happy" viewBox="0 0 65.441 65.441"><title>happy</title><path id="path-1_10_" style="fill:#EDC951;" d="M65.441,34.881c0,16.616-13.472,30.086-30.09,30.086S5.262,51.497,5.262,34.881 S18.733,4.795,35.351,4.795S65.441,18.265,65.441,34.881z"/><path id="path-2_10_" d="M45.647,23.776c0,2.01-1.629,3.639-3.639,3.639c-2.011,0-3.641-1.629-3.641-3.639s1.63-3.639,3.641-3.639 C44.018,20.137,45.647,21.766,45.647,23.776z"/><path id="path-3_10_" d="M24.718,23.776c0,2.01-1.629,3.639-3.64,3.639c-2.01,0-3.64-1.629-3.64-3.639s1.63-3.639,3.64-3.639 C23.089,20.137,24.718,21.766,24.718,23.776z"/><path id="path-4_10_" d="M34.374,50.737h-5.055c-6.403,0-11.611-5.145-11.611-11.469c0-0.829,0.671-1.5,1.5-1.5 c0.828,0,1.5,0.671,1.5,1.5c0,4.749,3.782,8.469,8.611,8.469h5.055c4.828,0,8.611-3.658,8.611-8.329c0-0.829,0.671-1.5,1.5-1.5 c0.828,0,1.5,0.671,1.5,1.5C45.985,45.761,40.885,50.737,34.374,50.737z"/><path id="path-5_10_" d="M31.59,63.646C14.171,63.646,0,49.477,0,32.06C0,14.644,14.171,0.475,31.59,0.475 c17.418,0,31.59,14.169,31.59,31.585C63.18,49.477,49.008,63.646,31.59,63.646z M31.59,3.475C15.825,3.475,3,16.298,3,32.06 c0,15.763,12.825,28.587,28.59,28.587c15.764,0,28.59-12.824,28.59-28.587C60.18,16.298,47.354,3.475,31.59,3.475z"/></symbol><symbol id="wink" viewBox="0 0 64.5 64.5"><title>wink</title><path id="path-1_1_" style="fill:#EDC951;" d="M64.5,34.853c0,16.371-13.274,29.643-29.647,29.643S5.205,51.224,5.205,34.853 c0-16.372,13.275-29.644,29.648-29.644S64.5,18.481,64.5,34.853z"/><path id="path-2_1_" d="M44.951,25.789c0,1.975-1.601,3.576-3.577,3.576c-1.975,0-3.576-1.601-3.576-3.576 s1.601-3.576,3.576-3.576C43.35,22.213,44.951,23.814,44.951,25.789z"/><path id="path-3_1_" d="M33.873,49.767h-4.968c-6.305,0-11.435-5.093-11.435-11.354c0-0.828,0.672-1.5,1.5-1.5 c0.828,0,1.5,0.672,1.5,1.5c0,4.607,3.784,8.354,8.435,8.354h4.968c4.731,0,8.436-3.634,8.436-8.274 c0-0.828,0.672-1.499,1.5-1.499s1.5,0.671,1.5,1.499C45.309,44.815,40.285,49.767,33.873,49.767z"/><path id="path-4_1_" d="M22.878,26.77h-6c-0.828,0-1.5-0.672-1.5-1.5c0-0.829,0.672-1.5,1.5-1.5h6c0.828,0,1.5,0.671,1.5,1.5 C24.378,26.098,23.706,26.77,22.878,26.77z"/><path id="path-5_1_" d="M31.147,62.29C13.973,62.29,0,48.319,0,31.147S13.973,0.004,31.147,0.004s31.147,13.971,31.147,31.143 S48.321,62.29,31.147,62.29z M31.147,3.004C15.626,3.004,3,15.628,3,31.147s12.626,28.144,28.147,28.144 c15.52,0,28.147-12.625,28.147-28.144S46.667,3.004,31.147,3.004z"/></symbol><symbol id="love" viewBox="0 0 67.32 67.32"><title>love</title><path id="path-1_28_" style="fill:#EDC951;" d="M67.32,35.821c0,16.616-13.471,30.085-30.089,30.085S7.141,52.437,7.141,35.821 S20.613,5.735,37.231,5.735S67.32,19.205,67.32,35.821z"/><path id="path-2_28_" style="fill:#E56A77;" d="M52.896,22.015c-0.948,0-1.819,1.176-2.525,1.701 c-0.705-0.525-1.577-1.701-2.524-1.701c-2.34,0-4.238,1.897-4.238,4.237s6.057,9.249,6.762,8.724 c0.706,0.525,6.762-6.384,6.762-8.724S55.236,22.015,52.896,22.015z"/><path id="path-3_28_" style="fill:#E56A77;" d="M28.807,22.015c-0.947,0-1.819,1.176-2.525,1.701 c-0.705-0.525-1.577-1.701-2.524-1.701c-2.34,0-4.237,1.897-4.237,4.237s6.056,9.249,6.761,8.724 c0.706,0.525,6.762-6.384,6.762-8.724S31.147,22.015,28.807,22.015z"/><path id="path-4_28_" d="M34.373,52.227h-5.055c-6.511,0-11.611-5.001-11.611-11.386c0-0.829,0.671-1.5,1.5-1.5 c0.828,0,1.5,0.671,1.5,1.5c0,4.703,3.782,8.387,8.611,8.387h5.055c4.909,0,8.61-3.51,8.61-8.165c0-0.829,0.672-1.5,1.501-1.5 c0.828,0,1.5,0.671,1.5,1.5C45.984,47.323,40.883,52.227,34.373,52.227z"/><path id="path-5_28_" d="M44.837,33.684c-0.038,0.001-0.072-0.001-0.108-0.003c-0.032,0.002-0.065,0.003-0.098,0.003 c-2.212,0-8.163-7.474-8.163-10.253c0-3.163,2.574-5.737,5.737-5.737c1.05,0,1.878,0.607,2.524,1.186 c0.647-0.579,1.475-1.186,2.525-1.186c3.163,0,5.737,2.574,5.737,5.737c0,1.735-1.78,4.31-3.274,6.163 C46.449,33.651,45.282,33.684,44.837,33.684z M42.143,20.688c-1.447,0.006-2.675,1.234-2.675,2.743 c0.046,1.247,3.688,5.925,5.261,7.125c1.573-1.2,5.215-5.878,5.262-7.128c0-1.506-1.228-2.734-2.737-2.734 c-0.137,0.051-0.605,0.493-0.856,0.73c-0.271,0.255-0.532,0.496-0.773,0.675c-0.533,0.396-1.259,0.396-1.791,0 c-0.242-0.179-0.502-0.42-0.774-0.675C42.809,21.186,42.341,20.745,42.143,20.688z"/><path id="path-6_23_" d="M20.748,33.684c-0.036,0.001-0.072-0.001-0.108-0.003c-0.032,0.002-0.065,0.003-0.097,0.003 c-2.213,0-8.164-7.474-8.164-10.253c0-3.163,2.574-5.737,5.737-5.737c1.05,0,1.878,0.607,2.524,1.186 c0.647-0.578,1.475-1.186,2.525-1.186c3.163,0,5.737,2.574,5.737,5.737c0,1.735-1.78,4.31-3.274,6.163 C22.36,33.651,21.193,33.684,20.748,33.684z M18.054,20.688c-1.447,0.006-2.675,1.234-2.675,2.743 c0.046,1.247,3.688,5.925,5.261,7.125c1.574-1.2,5.216-5.878,5.262-7.128c0-1.506-1.228-2.734-2.737-2.734 c-0.137,0.051-0.604,0.492-0.855,0.729c-0.272,0.256-0.533,0.497-0.775,0.676c-0.531,0.396-1.258,0.395-1.79,0 c-0.241-0.179-0.502-0.42-0.774-0.675C18.72,21.186,18.253,20.745,18.054,20.688z"/><path id="path-7_22_" d="M31.589,64.586C14.171,64.586,0,50.417,0,33C0,15.584,14.171,1.414,31.589,1.414S63.178,15.584,63.178,33 C63.178,50.417,49.007,64.586,31.589,64.586z M31.589,4.414C15.825,4.414,3,17.238,3,33c0,15.763,12.825,28.586,28.589,28.586 S60.178,48.763,60.178,33C60.178,17.238,47.353,4.414,31.589,4.414z"/></symbol><symbol id="unhappy" viewBox="0 0 66.381 66.381"><title>unhappy</title><path id="path-1_9_" style="fill:#EDC951;" d="M66.381,35.35c0,16.616-13.472,30.086-30.09,30.086S6.201,51.966,6.201,35.35 S19.673,5.265,36.291,5.265S66.381,18.735,66.381,35.35z"/><path id="path-2_9_" style="fill:#8B71B5;" d="M50.192,51.936c0-6.026-4.886-10.727-10.913-10.727h-5.457 c-6.026,0-10.912,4.793-10.912,10.819L50.192,51.936z"/><path id="path-3_9_" d="M17.282,28.769c-0.591,0-1.152-0.352-1.389-0.934c-0.314-0.767,0.054-1.642,0.822-1.955l4.556-1.858 l-4.605-2.563c-0.724-0.402-0.984-1.316-0.581-2.039c0.403-0.724,1.314-0.986,2.04-0.581l7.335,4.082 c0.504,0.28,0.803,0.825,0.768,1.4c-0.035,0.576-0.397,1.081-0.931,1.299l-7.449,3.038C17.662,28.733,17.471,28.769,17.282,28.769 z"/><path id="path-4_9_" d="M45.355,29.505c-0.232,0-0.466-0.053-0.686-0.166l-7.335-3.774c-0.491-0.254-0.805-0.756-0.813-1.31 c-0.009-0.552,0.287-1.065,0.77-1.334l7.335-4.082c0.724-0.405,1.637-0.143,2.04,0.581c0.403,0.723,0.143,1.637-0.581,2.039 l-4.887,2.72l4.844,2.492c0.736,0.38,1.026,1.284,0.648,2.02C46.423,29.208,45.899,29.505,45.355,29.505z"/><path id="path-5_9_" d="M18.209,50.208c-0.397,0-0.778-0.163-1.059-0.443c-0.283-0.282-0.441-0.666-0.441-1.064 c0-6.887,5.568-12.491,12.412-12.491h5.456c6.845,0,12.413,5.584,12.413,12.449c0,0.827-0.67,1.503-1.498,1.504l-27.281,0.045 C18.21,50.208,18.21,50.208,18.209,50.208z M29.121,39.208c-4.682,0-8.578,3.466-9.294,7.987l24.045-0.035 c-0.717-4.501-4.612-7.952-9.295-7.952H29.121z"/><path id="path-6_7_" d="M31.589,64.116C14.171,64.116,0,49.946,0,32.529C0,15.114,14.171,0.945,31.589,0.945 c17.419,0,31.59,14.169,31.59,31.585C63.179,49.946,49.008,64.116,31.589,64.116z M31.589,3.944C15.825,3.944,3,16.768,3,32.529 c0,15.763,12.825,28.587,28.589,28.587c15.765,0,28.59-12.824,28.59-28.587C60.179,16.768,47.354,3.944,31.589,3.944z"/><path id="path-7_7_" d="M45.491,49.571c-0.413,0-0.823-0.169-1.119-0.501c-0.47-0.52-11.162-12.046-25.185-0.005 c-0.629,0.54-1.578,0.468-2.116-0.161c-0.54-0.628-0.467-1.575,0.161-2.115c16.301-13.993,29.25,0.139,29.377,0.283 c0.552,0.619,0.498,1.567-0.12,2.118C46.203,49.445,45.846,49.571,45.491,49.571z"/></symbol><symbol id="lol" viewBox="0 0 67.321 67.321"><title>lol</title><path id="path-1_11_" style="fill:#EDC951;" d="M67.321,35.82c0,16.616-13.472,30.086-30.09,30.086S7.141,52.436,7.141,35.82 S20.613,5.734,37.231,5.734S67.321,19.204,67.321,35.82z"/><path id="path-2_11_" style="fill:#8B71B5;" d="M23.85,41.507c0,6.026,4.886,10.737,10.914,10.737h5.456 c6.026,0,10.912-4.737,10.912-10.763L23.85,41.507z"/><path id="path-3_11_" d="M17.282,29.238c-0.592,0-1.152-0.352-1.39-0.934c-0.313-0.767,0.055-1.642,0.823-1.955l4.555-1.858 l-4.603-2.563c-0.724-0.402-0.985-1.316-0.581-2.039c0.403-0.725,1.317-0.986,2.04-0.581l7.334,4.082 c0.504,0.28,0.803,0.825,0.767,1.4c-0.034,0.576-0.396,1.081-0.93,1.299l-7.45,3.038C17.662,29.202,17.471,29.238,17.282,29.238z"/><path id="path-4_11_" d="M45.354,29.974c-0.231,0-0.466-0.053-0.685-0.166l-7.335-3.774c-0.491-0.253-0.805-0.756-0.814-1.309 c-0.008-0.553,0.287-1.066,0.771-1.335l7.335-4.082c0.723-0.405,1.637-0.144,2.04,0.581c0.403,0.723,0.142,1.637-0.581,2.039 l-4.887,2.72l4.844,2.492c0.736,0.38,1.026,1.284,0.647,2.02C46.423,29.678,45.898,29.974,45.354,29.974z"/><path id="path-5_11_" d="M34.578,50.244h-5.457c-6.96,0-12.412-5.226-12.412-11.897c0-0.824,0.665-1.494,1.489-1.5l27.281-0.195 c0.385-0.005,0.784,0.153,1.068,0.435c0.284,0.282,0.443,0.665,0.443,1.065C46.99,44.933,41.538,50.244,34.578,50.244z M19.829,39.835c0.706,4.314,4.465,7.41,9.292,7.41h5.457c4.744,0,8.563-3.226,9.288-7.582L19.829,39.835z"/><path id="path-6_8_" d="M31.59,64.586C14.171,64.586,0,50.416,0,33C0,15.583,14.171,1.414,31.59,1.414 c17.418,0,31.589,14.169,31.589,31.585C63.179,50.416,49.008,64.586,31.59,64.586z M31.59,4.413C15.825,4.413,3,17.237,3,33 c0,15.763,12.825,28.587,28.59,28.587c15.763,0,28.589-12.824,28.589-28.587C60.179,17.237,47.353,4.413,31.59,4.413z"/></symbol></svg>